PathFileType	4	(X/Y/Z)	C:\Github\BTS_project\Data\sports2d_results\test6 Exam_2026-03-06_143334_tvc4_Sports2D\test6 Exam_2026-03-06_143334_tvc4_Sports2D_m_person00.trc
DataRate	CameraRate	NumFrames	NumMarkers	Units	OrigDataRate	OrigDataStartFrame	OrigNumFrames
30.0	30.0	6	22	m	30.0	28	112
Frame#	Time	Hip			RHip			RKnee			RAnkle			RBigToe			RSmallToe			RHeel			LHip			LKnee			LAnkle			LBigToe			LSmallToe			LHeel			Neck			Head			Nose			RShoulder			RElbow			RWrist			LShoulder			LElbow			LWrist			
		X1	Y1	Z1	X2	Y2	Z2	X3	Y3	Z3	X4	Y4	Z4	X5	Y5	Z5	X6	Y6	Z6	X7	Y7	Z7	X8	Y8	Z8	X9	Y9	Z9	X10	Y10	Z10	X11	Y11	Z11	X12	Y12	Z12	X13	Y13	Z13	X14	Y14	Z14	X15	Y15	Z15	X16	Y16	Z16	X17	Y17	Z17	X18	Y18	Z18	X19	Y19	Z19	X20	Y20	Z20	X21	Y21	Z21	X22	Y22	Z22
136	4.554033485540335	1.3346905677260084	1.4062824148610824	0.0301	1.1452234967095416	1.4062044907444686	0.0301	0.9843904192491523	0.8123045984580266	0.129	0.8187999566850278	0.20283525159770147	0.023	0.8939324124320894	0.04263657391161056	0.2179	0.770363009966557	0.04581363339202589	0.1804	0.7803699931196351	0.11679520998738475	-0.0119	1.5020907599876905	1.3376378586568212	0.0301	1.4961047605052968	0.7630558955937283	0.129	1.4338522969997842	0.1780930078763227	0.023	1.590855652118461	0.03725751547108184	0.2179	1.606802471295083	0.04587684966201638	0.1804	1.3580516366504545	0.07400497386446339	-0.0119	1.4794855024276223	2.3301146044958037	0.0008	1.5425212650456623	2.748816898802214	0.0655	1.5908447951097473	2.511203983244804	0.1076	1.1422723707089149	2.248569418995495	-0.01275	0.9598553489646513	1.8632814003465898	0.0702	1.276261156852313	1.8567705499501883	0.1076	1.7456971470521792	2.130521808989512	-0.01275	1.8567985949940955	1.7020928649896623	0.0702	1.706109450364578	1.8124701518645352	0.1076
137	4.58751902587519	1.3403569011316723	1.4070736877224603	0.0301	1.1492884508522896	1.4097634340199965	0.0301	0.9851215720913684	0.8100612636000724	0.129	0.8194889553285679	0.20464159612742466	0.023	0.8939840374260852	0.041171874966713776	0.2179	0.7733066774339012	0.04421336679348982	0.1804	0.7808639409172199	0.1157972526122242	-0.0119	1.5108581211095677	1.3388484998536274	0.0301	1.4984747582560127	0.7576643818380854	0.129	1.4336252698886103	0.17541898160949468	0.023	1.5916904243333716	0.03527432846767565	0.2179	1.6049256982518527	0.04187223784842065	0.1804	1.3572277588211707	0.07115689516297316	-0.0119	1.4792302551565704	2.330197776588796	0.0008	1.544020768611688	2.7465742900066625	0.0655	1.5914404073944237	2.510904683409541	0.1076	1.142218259956705	2.2482852237891415	-0.01275	0.9606171389995263	1.864082537932986	0.0702	1.2785626252496196	1.858646049533854	0.1076	1.7465358838189735	2.1329617349310106	-0.01275	1.8545760599699708	1.7048442959552075	0.0702	1.7036608552515142	1.8131141217780486	0.1076
138	4.621004566210045	1.3458481076834667	1.405572985775105	0.0301	1.1497973760822982	1.4075827456865724	0.0301	0.9840853482081667	0.8092995744984789	0.129	0.8191347544506232	0.20713790761271225	0.023	0.8914162240471656	0.037538606795820724	0.2179	0.7732928006986951	0.04277202308965118	0.1804	0.7798098292278829	0.11568421297244583	-0.0119	1.519586681801382	1.333286327557322	0.0301	1.4992517976199444	0.7534011811244077	0.129	1.4344993194151954	0.17471848523090902	0.023	1.5845575667291631	0.03630120499509431	0.2179	1.602871903659823	0.03896651069812078	0.1804	1.3583894232921043	0.0722835226186429	-0.0119	1.4789659272574418	2.330732000217588	0.0008	1.5464667045365634	2.747174412188591	0.0655	1.592853590814803	2.510530003470323	0.1076	1.1425650914492556	2.2476827467547915	-0.01275	0.9610400070778208	1.865183614552459	0.0702	1.281321036781214	1.858181773359793	0.1076	1.7473592551991268	2.135703166232396	-0.01275	1.8503241508050103	1.7042445084834819	0.0702	1.7031893551550494	1.812284036429273	0.1076
139	4.654490106544901	1.3485131477665602	1.4044228965148682	0.0301	1.1472609799527098	1.4028234669554058	0.0301	0.9819548159188198	0.8087602582913177	0.129	0.8176095093062842	0.20966082869628241	0.023	0.8874509728852634	0.03480170282066018	0.2179	0.7697346371874915	0.04258978535344455	0.1804	0.7783010349320867	0.1185583250751835	-0.0119	1.5237736593907216	1.3264392438831427	0.0301	1.4979372213606217	0.7513621652845011	0.129	1.4358932293950113	0.17597309070261916	0.023	1.5707930458513555	0.038994395621203375	0.2179	1.6017102967201455	0.038722740634503525	0.1804	1.362133258633926	0.07458136169171488	-0.0119	1.4784224079553043	2.3312143541331687	0.0008	1.5487662986000947	2.751133359367142	0.0655	1.593539522176324	2.5104766225164736	0.1076	1.1426485658518322	2.2471972463921532	-0.01275	0.9609873639613359	1.8656942212902186	0.0702	1.2837975778395754	1.8569915674581041	0.1076	1.748077680878894	2.1369964769997685	-0.01275	1.848199422890406	1.7024052098908422	0.0702	1.7032647050774365	1.8116553191307878	0.1076
140	4.687975646879757	1.348704843365151	1.404253717341304	0.0301	1.1436639628799776	1.400063582091548	0.0301	0.9808343583699264	0.8072994417857703	0.129	0.8167172867413851	0.2092993174743004	0.023	0.8850438586464169	0.03457571301344771	0.2179	0.7667324305151398	0.04331691089716234	0.1804	0.775681594895817	0.12035866203935316	-0.0119	1.5250015453912302	1.3239205669970084	0.0301	1.4957607785315268	0.7511984108007767	0.129	1.4352818302391603	0.1767703816543289	0.023	1.5591801358375523	0.04043593439629389	0.2179	1.6002147303079808	0.040238161780867206	0.1804	1.3659683366219237	0.0760345409353437	-0.0119	1.4780241349528773	2.33148323193506	0.0008	1.5505739657306203	2.7550696035766165	0.0655	1.5930333833302535	2.5109442058629226	0.1076	1.1420365526490024	2.2470410149079614	-0.01275	0.9610388207595416	1.8646436261925006	0.0702	1.285583818498074	1.8562683892466842	0.1076	1.7475190551952569	2.13698466096575	-0.01275	1.847665746478312	1.701796573275978	0.0702	1.7071155736792192	1.8121203580652028	0.1076
141	4.7214611872146115	1.347948143193085	1.404571105963552	0.0301	1.1417264785171486	1.3990780126422537	0.0301	0.9821498899643594	0.8051243669124089	0.129	0.8176274531688545	0.2058532556282322	0.023	0.8859324925910304	0.03554611134514416	0.2179	0.7675887686295809	0.04408049434068434	0.1804	0.7717164055922447	0.11872206671687521	-0.0119	1.526169801376114	1.3244865949102553	0.0301	1.4941936476487778	0.7512617023795206	0.129	1.4332009168367816	0.1763016931266469	0.023	1.5555175533625616	0.0404626352972683	0.2179	1.59648471491772	0.04311047919590269	0.1804	1.3663179453033611	0.07667151401217946	-0.0119	1.4781583045294344	2.3316996191467876	0.0008	1.5513052976610187	2.7561033997439885	0.0655	1.5930324228357935	2.511512634012033	0.1076	1.1416272439859716	2.2467897112999373	-0.01275	0.9616720454702143	1.8617076852423844	0.0702	1.2860886677325665	1.8560168802805583	0.1076	1.7455269719554187	2.137265540183278	-0.01275	1.8420913770226148	1.702145863640035	0.0702	1.715717284126216	1.8127588583445087	0.1076
